<svg xmlns="http://www.w3.org/2000/svg" version="1.1" xmlns:xlink="http://www.w3.org/1999/xlink" viewBox="0 0 700 700" style="overflow: hidden; display: block;" width="700" height="700"><defs><linearGradient id="two-285" x1="350" y1="-350" x2="350" y2="350" spreadMethod="pad" gradientUnits="userSpaceOnUse"><stop offset="0%" stop-color="hsl(180, 69%, 40%)" stop-opacity="1"></stop><stop offset="100%" stop-color="hsl(180, 69%, 60%)" stop-opacity="1"></stop></linearGradient></defs><g id="two-0" transform="matrix(1 0 0 1 0 0)" opacity="1"><path transform="matrix(1 0 0 1 350 350)" id="two-284" d="M 323.847659 71.28426 C 319.812694 110.274263 246.83532 94.188932 207.682943 96.084361 C 175.954844 97.620368 129.892432 58.897003 112.044867 85.174293 C 85.51107 124.240476 172.361539 164.68916 179.53598 211.366096 C 184.327289 242.538366 191.99704 296.013682 161.852731 305.286637 C 114.042363 319.994003 103.430425 210.087149 54.93079 197.842828 C 40.394506 194.172967 25.122663 217.100686 11.438742 210.975185 C -12.851432 200.101877 3.727856 141.736405 -22.602142 137.866965 C -51.320899 133.646474 -59.439865 184.233786 -81.10335 203.554058 C -113.89525 232.79905 -156.713303 308.902811 -189.978506 280.197333 C -243.590586 233.933962 -79.213379 157.902097 -93.468721 88.538274 C -95.412326 79.081056 -106.770911 72.953846 -115.866071 69.714301 C -145.450554 59.176799 -179.87715 75.129377 -211.022937 71.101905 C -253.248601 65.641691 -335.922543 79.03989 -335.309231 36.467076 C -334.307633 -33.058406 -177.051027 37.688465 -130.792694 -14.224563 C -124.460976 -21.330281 -123.605468 -33.982739 -127.114267 -42.829784 C -151.212418 -103.590587 -309.804595 -110.310676 -280.162975 -168.56847 C -258.411722 -211.318497 -186.761264 -124.142526 -139.461324 -132.104783 C -126.0225 -134.367014 -111.87381 -143.167909 -105.080242 -154.981762 C -89.508394 -182.060834 -129.334296 -240.549974 -99.397541 -249.469016 C -59.607063 -261.323773 -58.579336 -171.98174 -24.344047 -148.492116 C -15.330766 -142.307896 -3.122375 -137.351716 7.570093 -139.622165 C 24.497758 -143.216601 35.039807 -161.549274 48.028767 -172.983989 C 77.600472 -199.017174 95.904963 -250.233906 135.046343 -254.724427 C 155.6937 -257.093208 181.291689 -242.205624 189.521204 -223.121612 C 202.440897 -193.161211 156.369128 -157.754956 166.899364 -126.873599 C 172.242419 -111.204364 193.585776 -106.374085 205.822716 -95.223729 C 219.848493 -82.443377 248.152238 -73.027915 246.079574 -54.166211 C 242.496835 -21.562492 160.124417 -32.695369 162.741928 -0.000001 C 167.381366 57.951278 329.832099 13.456398 323.847659 71.28426 Z " fill="url(#two-285)" stroke="undefined" stroke-width="1" stroke-opacity="1" fill-opacity="1" visibility="visible" stroke-linecap="butt" stroke-linejoin="miter" stroke-miterlimit="4"></path></g></svg>